<svg id="Layer_1" data-name="Layer 1" xmlns="http://www.w3.org/2000/svg" viewBox="0 0 1349 313"><defs><style>.cls-1{fill:#067c92;}.cls-1,.cls-2{opacity:0.9;}.cls-3,.cls-5{fill:none;stroke:#fff;stroke-linecap:round;stroke-width:3px;}.cls-3{stroke-linejoin:round;}.cls-4{fill:#fff;}.cls-5{stroke-miterlimit:10;}</style></defs><title>Iconos banners</title><rect class="cls-1" x="-19" y="-12.95" width="1387" height="339"/><g class="cls-2"><path class="cls-3" d="M236.44,120c14.08.54,13.89-14.7,13.89-14.7V93.73a11.57,11.57,0,0,0-6.87-11.2,15.89,15.89,0,0,0-14,0,11.56,11.56,0,0,0-6.88,11.2v11.56S222.35,120.53,236.44,120Z"/><path class="cls-3" d="M222.54,95.52l3.51-2a6.17,6.17,0,0,1,5.32-.31l10.08,4.16a6.15,6.15,0,0,0,6.83-1.49l2.05-2.2"/><path class="cls-3" d="M228.5,118v4.8a3.81,3.81,0,0,1-.88,2.44l-3.7,4.47a3.69,3.69,0,0,1-1.53,1.11L209.53,136a16.52,16.52,0,0,0-10.37,14.8l-.42,24.08"/><path class="cls-3" d="M245,118v6.18l4.58,5.53a3.69,3.69,0,0,0,1.53,1.11L264,136a16.52,16.52,0,0,1,10.37,14.8l.41,24.08"/><path class="cls-3" d="M228.5,124.22l6,1.8a7.08,7.08,0,0,0,3.9,0l6.63-1.84"/><polyline class="cls-3" points="249.34 129.75 243.11 137.4 236.83 126.6 236.44 126.6 230.15 137.4 223.92 129.75"/><polyline class="cls-3" points="240.29 132.54 238.56 138.92 234.53 138.92 232.85 132.76"/><line class="cls-3" x1="234.71" y1="130.11" x2="238.53" y2="130.11"/><polyline class="cls-3" points="238.74 138.92 243.15 170.12 236.83 174.89 236.44 174.89 230.12 170.12 234.53 138.92"/><line class="cls-3" x1="213.62" y1="157.91" x2="213.62" y2="174.89"/><line class="cls-3" x1="260.99" y1="157.91" x2="260.99" y2="174.89"/><path class="cls-3" d="M176.9,101.67C191,102.2,190.8,87,190.8,87V75.41a11.56,11.56,0,0,0-6.88-11.2,15.89,15.89,0,0,0-14,0A11.56,11.56,0,0,0,163,75.41V87S162.81,102.2,176.9,101.67Z"/><path class="cls-3" d="M163,77.19l3.51-1.94a6.14,6.14,0,0,1,5.32-.31l10.09,4.15a6.15,6.15,0,0,0,6.83-1.49l2.05-2.19"/><path class="cls-3" d="M169,99.71v4.8a3.83,3.83,0,0,1-.88,2.45l-3.69,4.46a3.85,3.85,0,0,1-1.53,1.12L150,117.68a16.52,16.52,0,0,0-10.37,14.81l-.42,24.08"/><path class="cls-3" d="M185.48,99.71v6.18l4.58,5.53a3.78,3.78,0,0,0,1.53,1.12l12.86,5.14a16.52,16.52,0,0,1,10.37,14.81"/><path class="cls-3" d="M169,105.89l6,1.8a7,7,0,0,0,3.91,0l6.62-1.84"/><polyline class="cls-3" points="189.8 111.42 183.57 119.07 177.29 108.27 176.9 108.27 170.62 119.07 164.39 111.42"/><line class="cls-3" x1="154.09" y1="139.59" x2="154.09" y2="156.57"/><path class="cls-3" d="M288.64,104.12c12.17.47,12-12.7,12-12.7v-10a10,10,0,0,0-5.94-9.68,13.77,13.77,0,0,0-12.14,0,10,10,0,0,0-5.94,9.68v10S276.47,104.59,288.64,104.12Z"/><path class="cls-3" d="M281.78,102.44v4.14a3.31,3.31,0,0,1-.76,2.11l-3.19,3.86a3.37,3.37,0,0,1-1.33,1L265.39,118a14.28,14.28,0,0,0-9,12.8l-.36,1.85"/><path class="cls-3" d="M296.06,102.44v5.34l3.95,4.77a3.34,3.34,0,0,0,1.32,1L312.45,118a14.28,14.28,0,0,1,9,12.8l.36,20.8"/><line class="cls-3" x1="309.86" y1="136.89" x2="309.86" y2="151.56"/><circle class="cls-4" cx="288.64" cy="135.83" r="1.79"/><circle class="cls-4" cx="288.64" cy="143.96" r="1.79"/><circle class="cls-4" cx="288.64" cy="152.09" r="1.79"/><path class="cls-3" d="M283.84,70.34a8.24,8.24,0,1,1,15,4.75"/><path class="cls-3" d="M276.5,84.86l3.61-2.32a8.48,8.48,0,0,1,7.82-.72l12.72,5.24"/><polyline class="cls-3" points="276.5 113.52 288.58 127.15 301.33 113.52"/><circle class="cls-4" cx="177.22" cy="124.48" r="1.79"/><circle class="cls-4" cx="177.22" cy="132.61" r="1.79"/><circle class="cls-4" cx="177.22" cy="140.74" r="1.79"/><circle class="cls-4" cx="177.22" cy="148.87" r="1.79"/><circle class="cls-4" cx="177.22" cy="157" r="1.79"/></g><g class="cls-2"><path class="cls-4" d="M151.92,232.21l-1.45,2.91a5.21,5.21,0,0,0-3.79-1.18,4.91,4.91,0,0,0-4.06,2.08,8.48,8.48,0,0,0-1.58,5.26,7.91,7.91,0,0,0,1.47,5,4.72,4.72,0,0,0,3.92,1.87,5.3,5.3,0,0,0,4.38-2l1.64,2.84q-2.16,2.29-6.31,2.29a7.94,7.94,0,0,1-6.45-2.74,11.16,11.16,0,0,1-2.3-7.45,10.85,10.85,0,0,1,2.55-7.35,8.2,8.2,0,0,1,6.53-3A9.51,9.51,0,0,1,151.92,232.21Z"/><path class="cls-4" d="M154.34,240.9a11.2,11.2,0,0,1,2.32-7.17,7.52,7.52,0,0,1,6.21-2.92,8.1,8.1,0,0,1,6.53,2.65q2.26,2.65,2.26,7.44a11.46,11.46,0,0,1-2.36,7.6,8.27,8.27,0,0,1-6.71,2.82,7.24,7.24,0,0,1-6.12-2.79A12.28,12.28,0,0,1,154.34,240.9Zm3.65,0a10.3,10.3,0,0,0,1.18,5.38,3.78,3.78,0,0,0,3.42,1.91,4.7,4.7,0,0,0,4-1.87A9,9,0,0,0,168,240.9q0-7-5.14-7a4.09,4.09,0,0,0-3.62,1.89A9,9,0,0,0,158,240.9Z"/><path class="cls-4" d="M174.77,251V231.16h3.52v16.69h9V251Z"/><path class="cls-4" d="M193.61,234.28v4.64h6.54v3h-6.54v5.94h9V251h-12.5V231.16h12.65v3.12Z"/><path class="cls-4" d="M219.44,232.21,218,235.12a5.23,5.23,0,0,0-3.79-1.18,4.91,4.91,0,0,0-4.06,2.08,8.41,8.41,0,0,0-1.58,5.26,8,8,0,0,0,1.46,5,4.73,4.73,0,0,0,3.92,1.87,5.3,5.3,0,0,0,4.39-2L220,249q-2.15,2.29-6.3,2.29a8,8,0,0,1-6.46-2.74,11.21,11.21,0,0,1-2.3-7.45,10.85,10.85,0,0,1,2.55-7.35,8.22,8.22,0,0,1,6.53-3A9.54,9.54,0,0,1,219.44,232.21Z"/><path class="cls-4" d="M230.87,234.28V251h-3.52v-16.7h-6.3v-3.12h16.41v3.12Z"/><path class="cls-4" d="M239.83,251V231.16h3.51V251Z"/><path class="cls-4" d="M254.86,251.25h-1.94l-7.41-20.09h3.87L254,244.55l4.85-13.39h3.79Z"/><path class="cls-4" d="M264.76,251V231.16h3.52V251Z"/><path class="cls-4" d="M271.46,249.88l1.3-3.15a7.16,7.16,0,0,0,4.1,1.46c2.06,0,3.1-.72,3.1-2.16a3.13,3.13,0,0,0-.73-1.94,9.42,9.42,0,0,0-3-2.06,14.63,14.63,0,0,1-3.08-1.88,5.09,5.09,0,0,1-1.21-1.75,5.68,5.68,0,0,1-.43-2.25,4.93,4.93,0,0,1,1.68-3.82,6.24,6.24,0,0,1,4.33-1.51,8.08,8.08,0,0,1,5,1.28l-1.06,3a6.6,6.6,0,0,0-3.92-1.33,2.58,2.58,0,0,0-1.88.64,2.21,2.21,0,0,0-.67,1.67q0,1.71,3.77,3.55a12.21,12.21,0,0,1,2.87,1.79,5.52,5.52,0,0,1,1.34,1.91,6.09,6.09,0,0,1,.46,2.43,4.9,4.9,0,0,1-1.9,4,7.79,7.79,0,0,1-5.09,1.56A9.05,9.05,0,0,1,271.46,249.88Z"/><path class="cls-4" d="M305.05,251h-3.4l-2.06-10.69-4,10.95h-1.26l-4-10.95L288.21,251h-3.4l4-19.83h1.86L295,244.51l4.2-13.35H301Z"/><path class="cls-4" d="M306.27,240.9a11.25,11.25,0,0,1,2.32-7.17,7.52,7.52,0,0,1,6.21-2.92,8.08,8.08,0,0,1,6.53,2.65q2.26,2.65,2.26,7.44a11.46,11.46,0,0,1-2.36,7.6,8.25,8.25,0,0,1-6.7,2.82,7.26,7.26,0,0,1-6.13-2.79A12.28,12.28,0,0,1,306.27,240.9Zm3.66,0a10.3,10.3,0,0,0,1.17,5.38,3.78,3.78,0,0,0,3.43,1.91,4.68,4.68,0,0,0,4-1.87,8.94,8.94,0,0,0,1.39-5.42q0-7-5.14-7a4.09,4.09,0,0,0-3.62,1.89A9.11,9.11,0,0,0,309.93,240.9Z"/></g><g class="cls-2"><path class="cls-3" d="M684.7,120c14.09.54,13.9-14.7,13.9-14.7V93.73a11.57,11.57,0,0,0-6.88-11.2,15.89,15.89,0,0,0-14,0,11.57,11.57,0,0,0-6.88,11.2v11.56S670.61,120.53,684.7,120Z"/><path class="cls-3" d="M670.8,95.52l3.51-2a6.17,6.17,0,0,1,5.32-.31l10.09,4.16a6.15,6.15,0,0,0,6.83-1.49l2.05-2.2"/><path class="cls-3" d="M676.76,118v4.8a3.81,3.81,0,0,1-.88,2.44l-3.69,4.47a3.83,3.83,0,0,1-1.53,1.11L657.8,136a16.52,16.52,0,0,0-10.37,14.8L647,174.89"/><path class="cls-3" d="M693.29,118v6.18l4.57,5.53a3.76,3.76,0,0,0,1.53,1.11L712.25,136a16.52,16.52,0,0,1,10.37,14.8l.42,24.08"/><path class="cls-3" d="M676.76,124.22l6,1.8a7.12,7.12,0,0,0,3.91,0l6.63-1.84"/><polyline class="cls-3" points="697.61 129.75 691.38 137.4 685.1 126.6 684.7 126.6 678.42 137.4 672.19 129.75"/><polyline class="cls-3" points="688.55 132.54 686.82 138.92 682.79 138.92 681.12 132.76"/><line class="cls-3" x1="682.97" y1="130.11" x2="686.8" y2="130.11"/><polyline class="cls-3" points="687 138.92 691.41 170.12 685.09 174.89 684.7 174.89 678.38 170.12 682.79 138.92"/><line class="cls-3" x1="661.89" y1="157.91" x2="661.89" y2="174.89"/><line class="cls-3" x1="709.26" y1="157.91" x2="709.26" y2="174.89"/></g><g class="cls-2"><path class="cls-4" d="M571,243.69V251h-3.52V231.17q3.53-.15,4.11-.15,4.7,0,6.87,1.44a5,5,0,0,1,2.17,4.5q0,6.82-8,6.82Q572,243.78,571,243.69Zm0-9.47v6.34c.59.06,1.06.1,1.41.1a6,6,0,0,0,3.51-.81,3,3,0,0,0,1.11-2.62q0-3.07-5-3.08A7.4,7.4,0,0,0,571,234.22Z"/><path class="cls-4" d="M594.92,251l-5.29-8.19c-.53,0-1.28,0-2.23-.09V251h-3.66V231.16l2.29-.1c1.33-.07,2.39-.11,3.21-.11q7.54,0,7.55,5.85a5.36,5.36,0,0,1-1,3.21,5.62,5.62,0,0,1-2.62,2L599,251Zm-7.52-16.76v5.5c.65.06,1.14.08,1.48.08a6.35,6.35,0,0,0,3.23-.62,2.6,2.6,0,0,0,1-2.42,2.09,2.09,0,0,0-1.09-2,7.66,7.66,0,0,0-3.45-.59A8.25,8.25,0,0,0,587.4,234.22Z"/><path class="cls-4" d="M599.72,240.9a11.25,11.25,0,0,1,2.32-7.17,7.52,7.52,0,0,1,6.21-2.92,8.08,8.08,0,0,1,6.53,2.65q2.26,2.65,2.26,7.44a11.46,11.46,0,0,1-2.36,7.6,8.25,8.25,0,0,1-6.7,2.82,7.26,7.26,0,0,1-6.13-2.79A12.28,12.28,0,0,1,599.72,240.9Zm3.66,0a10.3,10.3,0,0,0,1.17,5.38,3.78,3.78,0,0,0,3.43,1.91,4.68,4.68,0,0,0,4-1.87,8.94,8.94,0,0,0,1.39-5.42q0-7-5.14-7a4.09,4.09,0,0,0-3.62,1.89A9.11,9.11,0,0,0,603.38,240.9Z"/><path class="cls-4" d="M623.67,234.28v4.64h7v3h-7V251h-3.52V231.16h13.06v3.12Z"/><path class="cls-4" d="M639.84,234.28v4.64h6.55v3h-6.55v5.94h9V251h-12.5V231.16H649v3.12Z"/><path class="cls-4" d="M651.14,249.88l1.3-3.15a7.16,7.16,0,0,0,4.1,1.46q3.09,0,3.09-2.16a3.07,3.07,0,0,0-.73-1.94,9.3,9.3,0,0,0-3-2.06,14.49,14.49,0,0,1-3.07-1.88,5.12,5.12,0,0,1-1.22-1.75,5.85,5.85,0,0,1-.42-2.25,4.93,4.93,0,0,1,1.68-3.82,6.24,6.24,0,0,1,4.33-1.51,8.08,8.08,0,0,1,5,1.28l-1.07,3a6.57,6.57,0,0,0-3.91-1.33,2.58,2.58,0,0,0-1.88.64,2.21,2.21,0,0,0-.67,1.67c0,1.14,1.25,2.32,3.77,3.55a12.21,12.21,0,0,1,2.87,1.79,5.52,5.52,0,0,1,1.34,1.91,6.09,6.09,0,0,1,.46,2.43,4.9,4.9,0,0,1-1.9,4,7.8,7.8,0,0,1-5.1,1.56A9,9,0,0,1,651.14,249.88Z"/><path class="cls-4" d="M666.32,251V231.16h3.52V251Z"/><path class="cls-4" d="M673,240.9a11.2,11.2,0,0,1,2.32-7.17,7.49,7.49,0,0,1,6.2-2.92,8.12,8.12,0,0,1,6.54,2.65c1.5,1.77,2.26,4.25,2.26,7.44a11.41,11.41,0,0,1-2.37,7.6,8.24,8.24,0,0,1-6.7,2.82,7.24,7.24,0,0,1-6.12-2.79A12.28,12.28,0,0,1,673,240.9Zm3.65,0a10.2,10.2,0,0,0,1.18,5.38,3.76,3.76,0,0,0,3.42,1.91,4.71,4.71,0,0,0,4-1.87,9,9,0,0,0,1.38-5.42q0-7-5.14-7a4.08,4.08,0,0,0-3.61,1.89A9,9,0,0,0,676.67,240.9Z"/><path class="cls-4" d="M706.45,251.25l-9.62-12.54V251h-3.38V231.16h1.69l9.36,12v-12h3.38v20.09Z"/><path class="cls-4" d="M723.51,251l-1.45-4h-6.79l-1.38,4H710l7.9-20.09h1.55l8,20.09Zm-4.86-14-2.38,7.32H721Z"/><path class="cls-4" d="M729.49,251V231.16H733v16.69h9V251Z"/><path class="cls-4" d="M744.88,251V231.16h3.51V251Z"/><path class="cls-4" d="M756.92,251h-4.4V231.17c2.81-.1,4.57-.15,5.29-.15a9.29,9.29,0,0,1,6.87,2.54,9.09,9.09,0,0,1,2.53,6.73Q767.21,251,756.92,251ZM756,234.24v13.53a17.7,17.7,0,0,0,1.84.08,5,5,0,0,0,4.17-1.93,8.59,8.59,0,0,0,1.51-5.41q0-6.36-5.91-6.36C757.27,234.15,756.73,234.18,756,234.24Z"/><path class="cls-4" d="M781.89,251l-1.44-4h-6.8l-1.38,4h-3.91l7.91-20.09h1.54l8,20.09ZM777,237l-2.38,7.32h4.76Z"/><path class="cls-4" d="M792.27,251h-4.39V231.17c2.8-.1,4.56-.15,5.29-.15a9.28,9.28,0,0,1,6.86,2.54,9.09,9.09,0,0,1,2.54,6.73Q802.57,251,792.27,251Zm-.88-16.74v13.53a17.7,17.7,0,0,0,1.84.08,5,5,0,0,0,4.18-1.93,8.66,8.66,0,0,0,1.51-5.41q0-6.36-5.92-6.36C792.62,234.15,792.09,234.18,791.39,234.24Z"/></g><g class="cls-2"><line class="cls-5" x1="1116.17" y1="155.72" x2="1146.31" y2="155.72"/><line class="cls-5" x1="1118.47" y1="162.34" x2="1144.01" y2="162.34"/><path class="cls-5" d="M1139.34,169.2a8.6,8.6,0,0,1-16.27-.23"/><path class="cls-5" d="M1128.35,89.86V87.18a2.1,2.1,0,0,0-2-2.11c-.66,0-1.32,0-2,0"/><line class="cls-5" x1="1128.38" y1="145.35" x2="1128.35" y2="89.86"/><path class="cls-5" d="M1128.38,145.35v3.24a1.55,1.55,0,0,1-1.55,1.56h-11.95a1.54,1.54,0,0,1-1.55-1.53v-5.57"/><path class="cls-5" d="M1136.3,85.07a25.32,25.32,0,0,1,26.29,22.83,26.6,26.6,0,0,1,.1,3.56,23,23,0,0,1-3.88,11.57c-3.25,5-9.51,15.81-9.5,25.59a1.55,1.55,0,0,1-1.56,1.53h-11.94a1.56,1.56,0,0,1-1.56-1.56l0-61.41A2.1,2.1,0,0,1,1136.3,85.07Z"/><circle class="cls-5" cx="1143.99" cy="125.38" r="3.07"/><line class="cls-5" x1="1142.38" y1="128" x2="1135.81" y2="150.15"/><path class="cls-5" d="M1118.86,141.17a7.87,7.87,0,0,1-5.15,1.88c-4.15,0-7.51-3.07-7.51-6.86a6.69,6.69,0,0,1,3.14-5.58"/><path class="cls-5" d="M1099.27,113.85a7.4,7.4,0,0,1-3.29-4.11,7,7,0,0,1,4.23-8.92,6.66,6.66,0,0,1,6.17,1.14"/><path class="cls-5" d="M1113.49,87.47a9.16,9.16,0,0,1,4.11,1.1"/><path class="cls-5" d="M1106.89,101.63a6.4,6.4,0,0,1-3.93-3.91c-1.22-3.76,1.71-8.1,6.56-9.68a11.4,11.4,0,0,1,4-.57"/><path class="cls-5" d="M1106.2,134.56a7.22,7.22,0,0,1-5.7-11.65"/><path class="cls-5" d="M1108.31,110.05a7.21,7.21,0,0,1,4.22-12.26"/><path class="cls-5" d="M1108.19,127a5.76,5.76,0,0,1-4.29-9.42"/><path class="cls-5" d="M1122.05,104.87a5.76,5.76,0,0,1-.73,10.32"/><path class="cls-5" d="M1122.93,124.07a7.37,7.37,0,0,1-.29,10.41,7.29,7.29,0,0,1-4.36,2"/><path class="cls-5" d="M1102.59,123.43a7.23,7.23,0,0,1-5.7-11.66"/><path class="cls-5" d="M1113.49,87.47a7.22,7.22,0,0,1,6.26-3.62,7.14,7.14,0,0,1,4.43,1.53"/><line class="cls-5" x1="1087.57" y1="115.19" x2="1075.47" y2="115.19"/><line class="cls-5" x1="1100.44" y1="85.05" x2="1092.18" y2="76.22"/><line class="cls-5" x1="1131.24" y1="73.85" x2="1132.04" y2="61.78"/><line class="cls-5" x1="1160.47" y1="88.69" x2="1169.82" y2="81.02"/><line class="cls-5" x1="1182.61" y1="115.19" x2="1170.51" y2="115.19"/></g><g class="cls-2"><path class="cls-4" d="M1061,232.21l-1.45,2.91a5.21,5.21,0,0,0-3.79-1.18,4.91,4.91,0,0,0-4.06,2.08,8.48,8.48,0,0,0-1.58,5.26,7.91,7.91,0,0,0,1.47,5,4.72,4.72,0,0,0,3.92,1.87,5.3,5.3,0,0,0,4.38-2l1.64,2.84q-2.16,2.29-6.31,2.29a7.94,7.94,0,0,1-6.45-2.74,11.16,11.16,0,0,1-2.3-7.45,10.85,10.85,0,0,1,2.55-7.35,8.2,8.2,0,0,1,6.53-3A9.51,9.51,0,0,1,1061,232.21Z"/><path class="cls-4" d="M1075.53,251l-5.29-8.19c-.53,0-1.27,0-2.23-.09V251h-3.65V231.16l2.28-.1c1.33-.07,2.4-.11,3.21-.11q7.55,0,7.55,5.85a5.42,5.42,0,0,1-1,3.21,5.69,5.69,0,0,1-2.63,2l5.86,8.93ZM1068,234.22v5.5c.65.06,1.15.08,1.49.08a6.37,6.37,0,0,0,3.23-.62,2.6,2.6,0,0,0,1-2.42,2.1,2.1,0,0,0-1.1-2,7.66,7.66,0,0,0-3.45-.59A8.36,8.36,0,0,0,1068,234.22Z"/><path class="cls-4" d="M1084.8,234.28v4.64h6.55v3h-6.55v5.94h9V251h-12.51V231.16h12.66v3.12Z"/><path class="cls-4" d="M1108.62,251l-1.45-4h-6.79l-1.38,4h-3.91l7.9-20.09h1.54l8,20.09Zm-4.86-14-2.38,7.32h4.76Z"/><path class="cls-4" d="M1120,234.28V251h-3.52v-16.7h-6.31v-3.12h16.41v3.12Z"/><path class="cls-4" d="M1129,251V231.16h3.52V251Z"/><path class="cls-4" d="M1144,251.25h-1.93l-7.41-20.09h3.86l4.59,13.39,4.85-13.39h3.78Z"/><path class="cls-4" d="M1153.93,251V231.16h3.52V251Z"/><path class="cls-4" d="M1166,251h-4.4V231.17c2.81-.1,4.57-.15,5.29-.15a9.29,9.29,0,0,1,6.87,2.54,9.09,9.09,0,0,1,2.54,6.73Q1176.27,251,1166,251Zm-.88-16.74v13.53a17.7,17.7,0,0,0,1.84.08,5,5,0,0,0,4.18-1.93,8.66,8.66,0,0,0,1.5-5.41q0-6.36-5.91-6.36C1166.32,234.15,1165.79,234.18,1165.09,234.24Z"/><path class="cls-4" d="M1191,251l-1.45-4h-6.79l-1.38,4h-3.91l7.9-20.09h1.54l8,20.09Zm-4.86-14-2.38,7.32h4.76Z"/><path class="cls-4" d="M1201.33,251h-4.4V231.17c2.8-.1,4.57-.15,5.29-.15a9.3,9.3,0,0,1,6.87,2.54,9.09,9.09,0,0,1,2.53,6.73Q1211.62,251,1201.33,251Zm-.88-16.74v13.53a17.57,17.57,0,0,0,1.84.08,5,5,0,0,0,4.17-1.93,8.59,8.59,0,0,0,1.51-5.41q0-6.36-5.91-6.36C1201.68,234.15,1201.14,234.18,1200.45,234.24Z"/></g></svg>